<svg width="400" height="400" viewBox="0 0 400 400" fill="none" xmlns="http://www.w3.org/2000/svg">
<rect x="14" y="81" width="372" height="238" rx="20" stroke="#8EEF97" stroke-width="28" stroke-miterlimit="6.39245" stroke-linecap="round"/>
<path d="M164.232 200.028C164.232 211.396 163.317 221.523 161.488 230.408C159.789 239.163 156.98 246.676 153.06 252.948C149.14 259.089 144.044 263.793 137.772 267.06C131.5 270.327 123.791 271.96 114.644 271.96C103.145 271.96 93.7373 269.085 86.42 263.336C79.1027 257.587 73.68 249.355 70.152 238.64C66.7547 227.925 65.056 215.055 65.056 200.028C65.056 184.871 66.624 171.935 69.76 161.22C72.896 150.505 78.1227 142.273 85.44 136.524C92.7573 130.775 102.492 127.9 114.644 127.9C126.012 127.9 135.355 130.775 142.672 136.524C149.989 142.273 155.412 150.505 158.94 161.22C162.468 171.935 164.232 184.871 164.232 200.028ZM98.18 200.028C98.18 210.089 98.6373 218.452 99.552 225.116C100.597 231.649 102.296 236.615 104.648 240.012C107 243.409 110.332 245.108 114.644 245.108C118.956 245.108 122.288 243.475 124.64 240.208C126.992 236.811 128.625 231.78 129.54 225.116C130.585 218.452 131.108 210.089 131.108 200.028C131.108 190.097 130.585 181.8 129.54 175.136C128.625 168.341 126.992 163.245 124.64 159.848C122.288 156.451 118.956 154.752 114.644 154.752C110.332 154.752 107 156.451 104.648 159.848C102.296 163.245 100.597 168.276 99.552 174.94C98.6373 181.604 98.18 189.967 98.18 200.028ZM181.113 255.3C181.113 248.897 182.877 244.455 186.405 241.972C190.063 239.359 194.441 238.052 199.537 238.052C204.502 238.052 208.749 239.359 212.277 241.972C215.805 244.455 217.569 248.897 217.569 255.3C217.569 261.311 215.805 265.688 212.277 268.432C208.749 271.176 204.502 272.548 199.537 272.548C194.441 272.548 190.063 271.176 186.405 268.432C182.877 265.688 181.113 261.311 181.113 255.3ZM288.542 179.448C296.774 179.448 304.157 181.147 310.69 184.544C317.223 187.941 322.385 192.907 326.174 199.44C329.963 205.843 331.858 213.748 331.858 223.156C331.858 233.479 329.767 242.299 325.586 249.616C321.405 256.803 315.133 262.356 306.77 266.276C298.538 270.065 288.15 271.96 275.606 271.96C267.897 271.96 260.775 271.307 254.242 270C247.709 268.693 241.959 266.799 236.994 264.316V236.288C241.829 238.64 247.643 240.731 254.438 242.56C261.363 244.389 267.766 245.304 273.646 245.304C279.003 245.304 283.446 244.585 286.974 243.148C290.633 241.58 293.442 239.359 295.402 236.484C297.362 233.479 298.342 229.689 298.342 225.116C298.342 218.975 296.186 214.271 291.874 211.004C287.693 207.607 281.225 205.908 272.47 205.908C268.942 205.908 265.349 206.3 261.69 207.084C258.031 207.737 254.895 208.391 252.282 209.044L239.542 202.576L244.834 130.056H322.45V158.084H273.45L271.294 181.408C273.515 181.016 275.802 180.624 278.154 180.232C280.506 179.709 283.969 179.448 288.542 179.448Z" fill="#8EEF97"/>
</svg>
