<svg width="400" height="400" viewBox="0 0 400 400" fill="none" xmlns="http://www.w3.org/2000/svg">
<g clip-path="url(#clip0_60_2)">
<rect x="14" y="14" width="372" height="372" rx="95" stroke="#8EEF97" stroke-width="28" stroke-miterlimit="6.39245" stroke-linecap="round" stroke-dasharray="60 100"/>
<path d="M192.232 200.028C192.232 211.396 191.317 221.523 189.488 230.408C187.789 239.163 184.98 246.676 181.06 252.948C177.14 259.089 172.044 263.793 165.772 267.06C159.5 270.327 151.791 271.96 142.644 271.96C131.145 271.96 121.737 269.085 114.42 263.336C107.103 257.587 101.68 249.355 98.152 238.64C94.7547 227.925 93.056 215.055 93.056 200.028C93.056 184.871 94.624 171.935 97.76 161.22C100.896 150.505 106.123 142.273 113.44 136.524C120.757 130.775 130.492 127.9 142.644 127.9C154.012 127.9 163.355 130.775 170.672 136.524C177.989 142.273 183.412 150.505 186.94 161.22C190.468 171.935 192.232 184.871 192.232 200.028ZM126.18 200.028C126.18 210.089 126.637 218.452 127.552 225.116C128.597 231.649 130.296 236.615 132.648 240.012C135 243.409 138.332 245.108 142.644 245.108C146.956 245.108 150.288 243.475 152.64 240.208C154.992 236.811 156.625 231.78 157.54 225.116C158.585 218.452 159.108 210.089 159.108 200.028C159.108 190.097 158.585 181.8 157.54 175.136C156.625 168.341 154.992 163.245 152.64 159.848C150.288 156.451 146.956 154.752 142.644 154.752C138.332 154.752 135 156.451 132.648 159.848C130.296 163.245 128.597 168.276 127.552 174.94C126.637 181.604 126.18 189.967 126.18 200.028ZM284.573 270H250.861V194.54C250.861 192.711 250.861 190.163 250.861 186.896C250.861 183.499 250.926 179.905 251.056 176.116C251.187 172.196 251.318 168.799 251.449 165.924C250.403 167.231 248.966 168.799 247.137 170.628C245.307 172.327 243.609 173.829 242.041 175.136L225.969 188.268L209.309 167.492L255.761 130.056H284.573V270Z" fill="#8EEF97"/>
</g>
<defs>
<clipPath id="clip0_60_2">
<rect width="400" height="400" fill="white"/>
</clipPath>
</defs>
</svg>
