<?xml version="1.0" encoding="UTF-8" standalone="no"?>
<svg
   width="16"
   height="16"
   viewBox="0 0 16 16"
   fill="none"
   version="1.1"
   id="svg1"
   sodipodi:docname="float.svg"
   inkscape:version="1.4.3 (0d15f75042, 2025-12-25)"
   xmlns:inkscape="http://www.inkscape.org/namespaces/inkscape"
   xmlns:sodipodi="http://sodipodi.sourceforge.net/DTD/sodipodi-0.dtd"
   xmlns="http://www.w3.org/2000/svg"
   xmlns:svg="http://www.w3.org/2000/svg">
  <defs
     id="defs1" />
  <sodipodi:namedview
     id="namedview1"
     pagecolor="#ffffff"
     bordercolor="#000000"
     borderopacity="0.25"
     inkscape:showpageshadow="2"
     inkscape:pageopacity="0.0"
     inkscape:pagecheckerboard="0"
     inkscape:deskcolor="#d1d1d1"
     inkscape:zoom="11.313708"
     inkscape:cx="9.3691649"
     inkscape:cy="18.252194"
     inkscape:window-width="2560"
     inkscape:window-height="1043"
     inkscape:window-x="0"
     inkscape:window-y="0"
     inkscape:window-maximized="1"
     inkscape:current-layer="svg1" />
  <rect
     x="2"
     y="2"
     width="12"
     height="12"
     stroke="#8eef97"
     stroke-width="1.12"
     stroke-miterlimit="6.39245"
     stroke-linecap="round"
     id="rect1"
     style="fill:none;stroke:#fc7f7f;stroke-width:2;stroke-linejoin:round;stroke-dasharray:2,2;stroke-opacity:1;stroke-dashoffset:0" />
  <path
     style="fill:#fc7f7f;fill-opacity:1;stroke:none;stroke-width:0.0483338"
     d="m 9.5494125,6.9437131 c 0.397884,0 0.7547325,0.082119 1.0704975,0.2463091 0.315765,0.1641899 0.565264,0.4042155 0.748401,0.7199803 0.183135,0.3094814 0.274729,0.6915601 0.274729,1.1462845 0,0.4989498 -0.101066,0.925254 -0.30315,1.278912 -0.202083,0.347375 -0.505234,0.615773 -0.909449,0.805241 -0.397884,0.183137 -0.8999755,0.27473 -1.5062746,0.27473 -0.3726053,0 -0.7168386,-0.03156 -1.0326033,-0.09474 C 7.5757982,11.257263 7.297879,11.165719 7.0579015,11.045706 V 9.6910065 c 0.233694,0.1136811 0.5147067,0.2147471 0.843135,0.3031495 0.3347116,0.088403 0.644193,0.132628 0.9283956,0.132628 0.2589242,0 0.4736713,-0.03475 0.6441934,-0.104208 0.176853,-0.075787 0.312623,-0.1831365 0.407357,-0.3220962 0.09473,-0.1452431 0.1421015,-0.3284282 0.1421015,-0.5494586 0,-0.2968179 -0.1042075,-0.5241801 -0.3126235,-0.6820867 -0.202083,-0.1641899 -0.5147065,-0.246309 -0.9378689,-0.246309 -0.1705217,0 -0.344185,0.018947 -0.5210384,0.05684 -0.1768534,0.031562 -0.3284282,0.063172 -0.4547244,0.094734 L 7.1810561,8.0615774 7.4368385,4.55641 H 11.188315 V 5.9111098 H 8.8199587 L 8.715751,7.0384474 C 8.8231004,7.0195004 8.9336398,7.0005534 9.0473209,6.9816064 9.161002,6.9563274 9.328382,6.9437124 9.5494125,6.9437131 Z"
     id="path2" />
  <path
     style="fill:#fc7f7f;fill-opacity:1;stroke:none;stroke-width:0.0598641"
     d="m 4.3569605,10.411055 c 0,-0.38331 0.1056004,-0.6492253 0.3168006,-0.7978683 0.2189826,-0.1564247 0.4810675,-0.2346671 0.7861345,-0.2346671 0.2972253,0 0.5514677,0.078242 0.7626683,0.2346671 0.2112003,0.148643 0.3168006,0.4145583 0.3168006,0.7978683 0,0.359843 -0.1056004,0.621867 -0.3168006,0.786134 -0.2112006,0.164267 -0.465443,0.246401 -0.762668,0.246401 -0.3050673,0 -0.5671522,-0.08213 -0.7861348,-0.246401 C 4.4625607,11.032922 4.3569605,10.770898 4.3569605,10.411055 Z"
     id="path1" />
</svg>
