<?xml version="1.0" encoding="UTF-8" standalone="no"?>
<svg
   width="16"
   height="16"
   viewBox="0 0 16 16"
   fill="none"
   version="1.1"
   id="svg2"
   sodipodi:docname="number.svg"
   inkscape:version="1.4.3 (0d15f75042, 2025-12-25)"
   xmlns:inkscape="http://www.inkscape.org/namespaces/inkscape"
   xmlns:sodipodi="http://sodipodi.sourceforge.net/DTD/sodipodi-0.dtd"
   xmlns="http://www.w3.org/2000/svg"
   xmlns:svg="http://www.w3.org/2000/svg">
  <sodipodi:namedview
     id="namedview2"
     pagecolor="#ffffff"
     bordercolor="#000000"
     borderopacity="0.25"
     inkscape:showpageshadow="2"
     inkscape:pageopacity="0.0"
     inkscape:pagecheckerboard="0"
     inkscape:deskcolor="#d1d1d1"
     inkscape:zoom="32"
     inkscape:cx="3.90625"
     inkscape:cy="7.234375"
     inkscape:window-width="2560"
     inkscape:window-height="1043"
     inkscape:window-x="0"
     inkscape:window-y="0"
     inkscape:window-maximized="1"
     inkscape:current-layer="g1" />
  <g
     clip-path="url(#clip0_60_2)"
     id="g1"
     transform="scale(0.04)">
    <rect
       x="50"
       y="50"
       width="300"
       height="300"
       stroke="#8eef97"
       stroke-width="28"
       stroke-miterlimit="6.39245"
       stroke-linecap="round"
       stroke-dasharray="60, 100"
       id="rect1"
       style="fill:none;stroke:#fc7f7f;stroke-opacity:1;stroke-width:50;stroke-dasharray:50,100;stroke-dashoffset:0" />
    <path
       d="m 192.232,200.028 c 0,11.368 -0.915,21.495 -2.744,30.38 -1.699,8.755 -4.508,16.268 -8.428,22.54 -3.92,6.141 -9.016,10.845 -15.288,14.112 -6.272,3.267 -13.981,4.9 -23.128,4.9 -11.499,0 -20.907,-2.875 -28.224,-8.624 -7.317,-5.749 -12.74,-13.981 -16.268,-24.696 -3.3973,-10.715 -5.096,-23.585 -5.096,-38.612 0,-15.157 1.568,-28.093 4.704,-38.808 3.136,-10.715 8.363,-18.947 15.68,-24.696 7.317,-5.749 17.052,-8.624 29.204,-8.624 11.368,0 20.711,2.875 28.028,8.624 7.317,5.749 12.74,13.981 16.268,24.696 3.528,10.715 5.292,23.651 5.292,38.808 z m -66.052,0 c 0,10.061 0.457,18.424 1.372,25.088 1.045,6.533 2.744,11.499 5.096,14.896 2.352,3.397 5.684,5.096 9.996,5.096 4.312,0 7.644,-1.633 9.996,-4.9 2.352,-3.397 3.985,-8.428 4.9,-15.092 1.045,-6.664 1.568,-15.027 1.568,-25.088 0,-9.931 -0.523,-18.228 -1.568,-24.892 -0.915,-6.795 -2.548,-11.891 -4.9,-15.288 -2.352,-3.397 -5.684,-5.096 -9.996,-5.096 -4.312,0 -7.644,1.699 -9.996,5.096 -2.352,3.397 -4.051,8.428 -5.096,15.092 -0.915,6.664 -1.372,15.027 -1.372,25.088 z M 284.573,270 h -33.712 v -75.46 c 0,-1.829 0,-4.377 0,-7.644 0,-3.397 0.065,-6.991 0.195,-10.78 0.131,-3.92 0.262,-7.317 0.393,-10.192 -1.046,1.307 -2.483,2.875 -4.312,4.704 -1.83,1.699 -3.528,3.201 -5.096,4.508 l -16.072,13.132 -16.66,-20.776 46.452,-37.436 h 28.812 z"
       fill="#8eef97"
       id="path1"
       style="fill:#fc7f7f;fill-opacity:1;stroke:none;stroke-width:25;stroke-dasharray:none" />
  </g>
  <defs
     id="defs2">
    <clipPath
       id="clip0_60_2">
      <rect
         width="400"
         height="400"
         fill="#ffffff"
         id="rect2"
         x="0"
         y="0" />
    </clipPath>
  </defs>
</svg>
